<?xml version="1.0" encoding="UTF-8" standalone="no"?>
<!-- Created with Inkscape (http://www.inkscape.org/) -->

<svg
   width="39.237301mm"
   height="47.903423mm"
   viewBox="0 0 39.237301 47.903423"
   version="1.1"
   id="svg1"
   inkscape:version="1.4 (86a8ad7, 2024-10-11)"
   sodipodi:docname="ScamSenseLogo.svg"
   inkscape:export-filename="ScamSenseLogo.png"
   inkscape:export-xdpi="18.142857"
   inkscape:export-ydpi="18.142857"
   xmlns:inkscape="http://www.inkscape.org/namespaces/inkscape"
   xmlns:sodipodi="http://sodipodi.sourceforge.net/DTD/sodipodi-0.dtd"
   xmlns="http://www.w3.org/2000/svg"
   xmlns:svg="http://www.w3.org/2000/svg">
  <sodipodi:namedview
     id="namedview1"
     pagecolor="#ffffff"
     bordercolor="#000000"
     borderopacity="0.25"
     inkscape:showpageshadow="2"
     inkscape:pageopacity="0.0"
     inkscape:pagecheckerboard="0"
     inkscape:deskcolor="#d1d1d1"
     inkscape:document-units="mm"
     inkscape:zoom="1.5180135"
     inkscape:cx="228.25884"
     inkscape:cy="632.40546"
     inkscape:window-width="1920"
     inkscape:window-height="1094"
     inkscape:window-x="-11"
     inkscape:window-y="-11"
     inkscape:window-maximized="1"
     inkscape:current-layer="layer1">
    <inkscape:page
       x="0"
       y="0"
       width="39.237301"
       height="47.903423"
       id="page2"
       margin="0"
       bleed="0" />
  </sodipodi:namedview>
  <defs
     id="defs1" />
  <g
     inkscape:label="Layer 1"
     inkscape:groupmode="layer"
     id="layer1"
     transform="translate(-62.362946,-126.5437)">
    <path
       id="path1"
       style="fill:#5d5d5d;fill-opacity:1;stroke:none;stroke-width:0.0928678"
       d="m 81.981318,130.22673 -15.462105,7.136 h -0.0098 a 33.27598,33.27598 0 0 0 -10e-4,0.005 l -0.0016,5.1e-4 h 0.0016 a 33.27598,33.27598 0 0 0 -1.141533,8.41086 33.27598,33.27598 0 0 0 16.520439,28.66802 33.27598,33.27598 0 0 0 16.708541,-28.77137 33.27598,33.27598 0 0 0 -1.091923,-8.31319 h -0.05994 z"
       inkscape:export-filename="ScamSenseLogo.svg"
       inkscape:export-xdpi="64.734322"
       inkscape:export-ydpi="64.734322" />
    <path
       id="path4"
       style="fill:#ffffff;fill-opacity:1;stroke:none;stroke-width:0.0754253"
       d="m 81.981318,134.37996 -10.273792,4.74132 a 2.5272887,2.5272887 0 0 1 0.233061,1.05833 2.5272887,2.5272887 0 0 1 -2.527494,2.52749 2.5272887,2.5272887 0 0 1 -0.530717,-0.063 27.026078,27.026078 0 0 0 -0.394808,4.36717 27.026078,27.026078 0 0 0 11.304219,21.89996 2.5272887,2.5272887 0 0 1 2.11305,-1.14412 2.5272887,2.5272887 0 0 1 2.122351,1.15652 27.026078,27.026078 0 0 0 11.44788,-21.99659 27.026078,27.026078 0 0 0 -0.370003,-4.28449 2.5272887,2.5272887 0 0 1 -0.516765,0.0599 2.5272887,2.5272887 0 0 1 -2.526977,-2.52697 2.5272887,2.5272887 0 0 1 0.224792,-1.04025 z" />
    <circle
       style="fill:#5d5d5d;fill-opacity:1;stroke:none;stroke-width:0.0783139"
       id="path5"
       cx="81.981293"
       cy="150.54108"
       r="7.5868893" />
    <text
       xml:space="preserve"
       style="font-size:13.9044px;font-family:'MS PGothic';-inkscape-font-specification:'MS PGothic';text-align:start;writing-mode:lr-tb;direction:ltr;text-anchor:start;fill:#ffffff;fill-opacity:1;stroke:none;stroke-width:0.0653629"
       x="77.717636"
       y="155.34787"
       id="text5"><tspan
         sodipodi:role="line"
         id="tspan5"
         style="fill:#ffffff;fill-opacity:1;stroke:none;stroke-width:0.0653629"
         x="77.717636"
         y="155.34787">S</tspan></text>
    <path
       id="path7"
       style="fill:#5d5d5d;fill-opacity:1;stroke:none;stroke-width:0.0230264"
       d="m 64.364581,133.27444 a 2.0015601,2.0015601 0 0 0 -2.001634,2.00151 2.0015601,2.0015601 0 0 0 2.001634,2.00163 2.0015601,2.0015601 0 0 0 2.001505,-2.00163 2.0015601,2.0015601 0 0 0 -2.001505,-2.00151 z m 0,1.039 a 0.96258237,0.96258237 0 0 1 0.962506,0.96251 0.96258237,0.96258237 0 0 1 -0.962506,0.96263 0.96258237,0.96258237 0 0 1 -0.962635,-0.96263 0.96258237,0.96258237 0 0 1 0.962635,-0.96251 z" />
    <path
       id="path7-7"
       style="fill:#5d5d5d;fill-opacity:1;stroke:none;stroke-width:0.0230264"
       d="m 99.598747,133.27455 a 2.0015601,2.0015601 0 0 0 -2.001634,2.00151 2.0015601,2.0015601 0 0 0 2.001634,2.00163 2.0015601,2.0015601 0 0 0 2.001503,-2.00163 2.0015601,2.0015601 0 0 0 -2.001503,-2.00151 z m 0,1.039 a 0.96258237,0.96258237 0 0 1 0.962503,0.96251 0.96258237,0.96258237 0 0 1 -0.962503,0.96263 0.96258237,0.96258237 0 0 1 -0.962635,-0.96263 0.96258237,0.96258237 0 0 1 0.962635,-0.96251 z" />
    <path
       style="fill:none;fill-opacity:1;stroke:#5d5d5d;stroke-width:1.093;stroke-dasharray:none;stroke-opacity:1"
       d="m 65.238484,134.87266 16.742832,-7.72707 16.743396,7.72719"
       id="path8"
       sodipodi:nodetypes="ccc" />
  </g>
</svg>
